<svg width="197" height="430" viewBox="0 0 197 430" fill="none" xmlns="http://www.w3.org/2000/svg">
<path d="M119.257 0.168791C118.976 0.175548 118.773 0.399597 118.804 0.669218L119.304 5.06295C119.335 5.33257 119.587 5.54566 119.868 5.53891C120.149 5.53215 120.351 5.3081 120.321 5.03848L119.876 1.13294L123.943 1.03507C124.224 1.02831 124.426 0.804261 124.396 0.53464C124.365 0.265019 124.113 0.0519252 123.832 0.0586816L119.257 0.168791ZM196.653 249.924C196.798 249.704 196.718 249.399 196.475 249.242L192.52 246.687C192.277 246.53 191.963 246.58 191.819 246.8C191.674 247.019 191.754 247.324 191.997 247.481L195.513 249.753L193.421 252.931C193.276 253.151 193.356 253.456 193.599 253.613C193.841 253.769 194.155 253.719 194.3 253.499L196.653 249.924ZM118.992 1.01084C153.806 30.3938 174.013 57.4218 183.65 82.0683C193.282 106.704 192.368 128.996 184.872 148.944C169.866 188.879 128.473 219.437 92.3876 240.416C74.3565 250.898 57.6807 258.972 46.3256 264.624C40.6581 267.445 36.2924 269.673 33.76 271.295C33.1249 271.702 32.5955 272.077 32.1858 272.419C31.7833 272.754 31.4655 273.083 31.2886 273.403C31.1098 273.727 31.0232 274.155 31.3266 274.554C31.5842 274.893 32.0269 275.064 32.4658 275.164C33.3792 275.375 34.8604 275.406 36.9152 275.289C38.9889 275.172 41.7038 274.9 45.1174 274.475C51.9455 273.626 61.601 272.159 74.5759 270.076C100.518 265.909 139.798 259.262 196.34 250.121L196.088 249.158C139.521 258.302 100.282 264.943 74.3252 269.112C61.3503 271.196 51.7108 272.659 44.9026 273.507C41.498 273.93 38.8095 274.199 36.7699 274.314C34.7113 274.431 33.3694 274.387 32.6252 274.216C32.4448 274.174 32.3193 274.13 32.2363 274.088C32.1527 274.047 32.1338 274.021 32.1368 274.025C32.1787 274.08 32.1064 274.087 32.2022 273.914C32.3 273.737 32.517 273.492 32.8942 273.177C33.2641 272.869 33.759 272.517 34.3774 272.121C36.8588 270.531 41.1734 268.327 46.8564 265.498C58.2023 259.851 74.9086 251.763 92.9713 241.262C129.074 220.273 170.716 189.583 185.838 149.34C193.407 129.199 194.33 106.67 184.605 81.7957C174.883 56.9325 154.537 29.7625 119.632 0.303128L118.992 1.01084Z" fill="white"/>
<!-- <circle cx="38" cy="392" r="38" fill="#81CCB8"/> -->
</svg>
