<svg width="680" height="606" viewBox="0 0 680 606" fill="none" xmlns="http://www.w3.org/2000/svg">
<circle cx="493.739" cy="185.5" r="184" stroke="white" stroke-width="3"/>
<circle cx="358.239" cy="450" r="155.58" stroke="#F2F2F2" stroke-width="0.84097"/>
<path d="M150.297 141.104C150.039 141.203 149.911 141.493 150.01 141.75L151.631 145.948C151.731 146.206 152.02 146.334 152.278 146.234C152.535 146.135 152.664 145.845 152.564 145.588L151.123 141.856L154.855 140.416C155.112 140.316 155.241 140.027 155.141 139.769C155.042 139.511 154.752 139.383 154.495 139.483L150.297 141.104ZM357.966 424.673C358.023 424.402 357.85 424.137 357.579 424.081L353.175 423.159C352.904 423.102 352.639 423.275 352.583 423.546C352.526 423.816 352.7 424.081 352.97 424.137L356.885 424.957L356.065 428.872C356.009 429.142 356.182 429.407 356.452 429.464C356.722 429.521 356.987 429.347 357.044 429.077L357.966 424.673ZM150.274 142.027C252.475 187.288 289.452 245.121 294.331 301.939C299.216 358.819 271.952 414.842 245.31 456.489C231.994 477.305 218.85 494.505 209.978 506.411C205.55 512.354 202.168 517.002 200.374 520.115C199.925 520.896 199.568 521.591 199.32 522.193C199.074 522.788 198.918 523.327 198.899 523.786C198.88 524.254 199.006 524.718 199.412 525.014C199.787 525.288 200.289 525.332 200.81 525.274C201.861 525.158 203.411 524.578 205.482 523.57C207.571 522.553 210.245 521.072 213.564 519.106C220.202 515.172 229.454 509.275 241.829 501.207C266.569 485.076 303.858 460.222 357.75 424.989L357.203 424.152C303.286 459.401 266.038 484.229 241.282 500.369C228.908 508.438 219.672 514.324 213.054 518.246C209.744 520.207 207.097 521.671 205.044 522.671C202.973 523.679 201.562 524.185 200.7 524.28C200.265 524.328 200.074 524.259 200.002 524.206C199.962 524.177 199.887 524.102 199.898 523.826C199.91 523.541 200.014 523.13 200.244 522.575C200.47 522.028 200.803 521.375 201.241 520.615C202.999 517.564 206.34 512.968 210.78 507.009C219.645 495.112 232.813 477.881 246.152 457.028C272.82 415.34 300.242 359.078 295.328 301.853C290.408 244.565 253.103 186.472 150.679 141.113L150.274 142.027Z" fill="white"/>
</svg>
