<svg width="29" height="28" viewBox="0 0 29 28" fill="none" xmlns="http://www.w3.org/2000/svg">
<path d="M9.87853 2.7771C6.3205 2.7771 3.42627 5.67401 3.42627 9.23296V18.453C3.42627 22.0111 6.32318 24.9053 9.88213 24.9053H19.1022C22.6602 24.9053 25.5545 22.0084 25.5545 18.4494V9.22936C25.5545 5.67133 22.6576 2.7771 19.0986 2.7771H9.87853ZM20.9444 6.46513C21.4534 6.46513 21.8664 6.87819 21.8664 7.38714C21.8664 7.89609 21.4534 8.30915 20.9444 8.30915C20.4355 8.30915 20.0224 7.89609 20.0224 7.38714C20.0224 6.87819 20.4355 6.46513 20.9444 6.46513ZM14.4904 8.30915C17.5413 8.30915 20.0224 10.7903 20.0224 13.8412C20.0224 16.8921 17.5413 19.3732 14.4904 19.3732C11.4394 19.3732 8.95832 16.8921 8.95832 13.8412C8.95832 10.7903 11.4394 8.30915 14.4904 8.30915ZM14.4904 10.1532C13.5122 10.1532 12.5742 10.5417 11.8825 11.2334C11.1909 11.925 10.8023 12.8631 10.8023 13.8412C10.8023 14.8193 11.1909 15.7574 11.8825 16.449C12.5742 17.1407 13.5122 17.5292 14.4904 17.5292C15.4685 17.5292 16.4066 17.1407 17.0982 16.449C17.7898 15.7574 18.1784 14.8193 18.1784 13.8412C18.1784 12.8631 17.7898 11.925 17.0982 11.2334C16.4066 10.5417 15.4685 10.1532 14.4904 10.1532Z" fill="white"/>
</svg>
