<svg width="28" height="28" viewBox="0 0 28 28" fill="none" xmlns="http://www.w3.org/2000/svg">
<path d="M13.8751 1.10645C6.85934 1.10645 1.15137 6.81386 1.15137 13.8302C1.15137 20.8465 6.85934 26.5539 13.8751 26.5539C20.8908 26.5539 26.5988 20.8465 26.5988 13.8302C26.5988 6.81386 20.8908 1.10645 13.8751 1.10645ZM10.0026 19.3622H7.78983V11.0641H10.0026V19.3622ZM8.89624 9.40452C8.28495 9.40452 7.78983 8.9094 7.78983 8.29811C7.78983 7.68682 8.28495 7.1917 8.89624 7.1917C9.50753 7.1917 10.0026 7.68682 10.0026 8.29811C10.0026 8.9094 9.50753 9.40452 8.89624 9.40452ZM20.5135 19.3622H18.3007V16.5962V15.2132C18.3007 14.1483 17.4294 13.277 16.3645 13.277C15.2996 13.277 14.4283 14.1483 14.4283 15.2132V19.3622H12.2155V11.0641H14.4283V12.0688C15.0744 11.4481 15.9507 11.0641 16.9177 11.0641C18.9037 11.0641 20.5135 12.674 20.5135 14.66V19.3622Z" fill="white"/>
</svg>
