<svg width="28" height="28" viewBox="0 0 28 28" fill="none" xmlns="http://www.w3.org/2000/svg">
<path d="M25.8164 6.40702C24.934 6.79887 23.9862 7.06256 22.9914 7.1815C24.0074 6.57298 24.7865 5.60948 25.1535 4.46066C24.2038 5.024 23.1509 5.43338 22.0297 5.65466C21.1326 4.69854 19.8547 4.10107 18.4403 4.10107C15.7241 4.10107 13.5223 6.30375 13.5223 9.01907C13.5223 9.40447 13.5666 9.78064 13.6496 10.1393C9.56231 9.93462 5.93882 7.97627 3.5121 5.00003C3.08982 5.72657 2.84733 6.57113 2.84733 7.47378C2.84733 9.1795 3.71494 10.6851 5.03433 11.5666C4.2285 11.5408 3.46968 11.3195 2.80676 10.9516C2.80676 10.9728 2.80676 10.9922 2.80676 11.0134C2.80676 13.3968 4.50141 15.3846 6.75203 15.8355C6.3399 15.948 5.90471 16.0079 5.45569 16.0079C5.13944 16.0079 4.83057 15.9765 4.53092 15.9203C5.15696 17.874 6.97332 19.2967 9.12528 19.3363C7.44262 20.6557 5.322 21.4422 3.01698 21.4422C2.62051 21.4422 2.22866 21.4192 1.84326 21.3731C4.02012 22.7681 6.60451 23.5822 9.38252 23.5822C18.4293 23.5822 23.3749 16.0881 23.3749 9.58887C23.3749 9.37588 23.3703 9.16382 23.3611 8.95268C24.3227 8.25841 25.1572 7.39264 25.8164 6.40702Z" fill="white"/>
</svg>
